<?xml version="1.0" encoding="utf-8"?>
<!-- Generator: Adobe Illustrator 21.0.0, SVG Export Plug-In . SVG Version: 6.00 Build 0)  -->
<svg version="1.1" id="Layer_1" xmlns="http://www.w3.org/2000/svg" xmlns:xlink="http://www.w3.org/1999/xlink" x="0px" y="0px"
	 viewBox="0 0 360 115" style="enable-background:new 0 0 360 115;" xml:space="preserve">
<style type="text/css">
	.st0{clip-path:url(#SVGID_2_);fill-rule:evenodd;clip-rule:evenodd;fill:#CB2027;}
	.st1{fill:#FFFFFF;}
</style>
<g>
	<defs>
		<rect id="SVGID_1_" width="360" height="114.9"/>
	</defs>
	<clipPath id="SVGID_2_">
		<use xlink:href="#SVGID_1_"  style="overflow:visible;"/>
	</clipPath>
	<path class="st0" d="M0,103c0,6.6,5.4,12,12,12h336c6.6,0,12-5.4,12-12V12c0-6.6-5.4-12-12-12H12C5.4,0,0,5.4,0,12V103"/>
</g>
<path class="st1" d="M57.4,76.4c0.1-2.1,0.3-5.2,0.3-8V31h5.6v19.5h0.1c2-3.5,5.6-5.7,10.6-5.7c7.7,0,13.1,6.4,13.1,15.8
	c0,11.1-7,16.6-13.9,16.6c-4.5,0-8.1-1.7-10.4-5.8h-0.2l-0.3,5.1H57.4 M63.2,64c0,0.7,0.1,1.4,0.3,2c1.1,3.9,4.4,6.6,8.4,6.6
	c5.9,0,9.4-4.8,9.4-11.9c0-6.2-3.2-11.5-9.2-11.5c-3.8,0-7.4,2.6-8.6,6.9c-0.1,0.6-0.3,1.4-0.3,2.3V64z"/>
<path class="st1" d="M112.7,76.4l-0.4-3.9H112c-1.7,2.4-5.1,4.6-9.5,4.6c-6.3,0-9.5-4.4-9.5-8.9c0-7.5,6.7-11.6,18.6-11.5v-0.6
	c0-2.6-0.7-7.2-7-7.2c-2.9,0-5.9,0.9-8.1,2.3l-1.3-3.7c2.6-1.7,6.3-2.8,10.2-2.8c9.5,0,11.8,6.5,11.8,12.7V69c0,2.7,0.1,5.3,0.5,7.4
	H112.7 M111.9,60.6c-6.1-0.1-13.1,1-13.1,7c0,3.6,2.4,5.4,5.3,5.4c4,0,6.6-2.6,7.5-5.2c0.2-0.6,0.3-1.2,0.3-1.8V60.6z"/>
<rect x="127.3" y="31" class="st1" width="5.6" height="45.4"/>
<path class="st1" d="M142.3,70.7c1.7,1.1,4.6,2.2,7.4,2.2c4.1,0,6-2,6-4.6c0-2.7-1.6-4.2-5.8-5.7c-5.6-2-8.2-5.1-8.2-8.8
	c0-5,4-9.1,10.7-9.1c3.1,0,5.9,0.9,7.6,1.9l-1.4,4.1c-1.2-0.8-3.5-1.8-6.3-1.8c-3.3,0-5.2,1.9-5.2,4.2c0,2.6,1.9,3.7,5.9,5.2
	c5.4,2,8.1,4.7,8.1,9.3c0,5.4-4.2,9.3-11.6,9.3c-3.4,0-6.5-0.8-8.7-2.1L142.3,70.7"/>
<path class="st1" d="M187.2,76.4l-0.4-3.9h-0.2c-1.7,2.4-5.1,4.6-9.5,4.6c-6.3,0-9.5-4.4-9.5-8.9c0-7.5,6.7-11.6,18.6-11.5v-0.6
	c0-2.6-0.7-7.2-7-7.2c-2.9,0-5.9,0.9-8.1,2.3l-1.3-3.7c2.6-1.7,6.3-2.8,10.2-2.8c9.5,0,11.8,6.5,11.8,12.7V69c0,2.7,0.1,5.3,0.5,7.4
	H187.2 M186.3,60.6c-6.1-0.1-13.1,1-13.1,7c0,3.6,2.4,5.4,5.3,5.4c4,0,6.6-2.6,7.5-5.2c0.2-0.6,0.3-1.2,0.3-1.8V60.6z"/>
<path class="st1" d="M201.7,53.8c0-3.2-0.1-5.8-0.3-8.4h4.9l0.3,5h0.2c1.7-2.9,4.6-5.7,9.7-5.7c4.2,0,7.4,2.6,8.8,6.2h0.1
	c1-1.7,2.2-3.1,3.5-4c1.9-1.4,3.9-2.2,6.8-2.2c4.1,0,10.2,2.7,10.2,13.4v18.2h-5.5V58.9c0-6-2.2-9.5-6.7-9.5c-3.2,0-5.7,2.4-6.7,5.1
	c-0.3,0.8-0.4,1.8-0.4,2.8v19.1h-5.5V57.9c0-4.9-2.2-8.5-6.5-8.5c-3.5,0-6.1,2.8-7,5.6c-0.3,0.8-0.4,1.8-0.4,2.8v18.7h-5.5V53.8"/>
<path class="st1" d="M262.3,36.8c0.1,1.9-1.3,3.5-3.6,3.5c-2,0-3.4-1.5-3.4-3.5c0-2,1.5-3.5,3.5-3.5C261,33.2,262.3,34.8,262.3,36.8
	 M256,45.5h5.6v31H256V45.5z"/>
<path class="st1" d="M293.3,71.6h-0.1c-1.7,3.1-5.1,5.5-10.1,5.5c-7.2,0-13.1-6.3-13.1-15.7c0-11.6,7.5-16.7,14-16.7
	c4.8,0,8,2.4,9.5,5.4h0.1l0.2-4.7h5.3c-0.1,2.6-0.2,5.3-0.2,8.5v35.1h-5.6V71.6 M293.3,58c0-0.8-0.1-1.7-0.3-2.4
	c-0.8-3.5-3.8-6.4-8.1-6.4c-5.8,0-9.3,4.9-9.3,11.9c0,6.1,2.9,11.5,9.2,11.5c3.6,0,6.8-2.2,8.1-6.1c0.3-0.8,0.4-1.9,0.4-2.7V58z"/>
<path class="st1" d="M315.5,49.3c0,2.7-2.2,4.8-5,4.8s-5-2.2-5-4.8c0-2.7,2.2-4.8,5-4.8S315.5,46.7,315.5,49.3 M307,49.4
	c0,2,1.5,3.6,3.5,3.6c2,0,3.5-1.6,3.5-3.6c0-2-1.5-3.6-3.5-3.6C308.5,45.7,307,47.3,307,49.4z M309.9,51.6h-1.4v-4.5
	c0.3-0.1,1-0.1,2-0.1c1,0,1.5,0.1,1.8,0.3c0.3,0.2,0.5,0.5,0.5,1c0,0.4-0.4,0.8-1,1v0.1c0.5,0.2,0.8,0.5,0.9,1.1
	c0.1,0.6,0.2,0.9,0.3,1.1h-1.5c-0.1-0.2-0.2-0.6-0.3-1c-0.1-0.4-0.3-0.7-0.8-0.7h-0.4V51.6z M309.9,49.1h0.4c0.5,0,0.8-0.2,0.8-0.5
	c0-0.4-0.3-0.6-0.8-0.6c-0.2,0-0.3,0-0.4,0V49.1z"/>
</svg>
