<?xml version="1.0" encoding="utf-8"?>
<!-- Generator: Adobe Illustrator 20.0.0, SVG Export Plug-In . SVG Version: 6.00 Build 0)  -->
<svg version="1.1" id="Layer_1" xmlns="http://www.w3.org/2000/svg" xmlns:xlink="http://www.w3.org/1999/xlink" x="0px" y="0px"
	 viewBox="0 0 263.4 82" style="enable-background:new 0 0 263.4 82;" xml:space="preserve">
<style type="text/css">
	.st0{fill:#E4002B;}
</style>
<title>Asset 1</title>
<g id="Layer_2">
	<g id="Layer_1-2">
		<path class="st0" d="M88.6,76.6L87.9,72c-4.4,3.3-9.8,5.2-15.4,5.3c-8.7,0-16-5.1-16-16.1c0-11.9,7.6-17.2,19.4-17.9l12-0.7v-2.8
			c0-6.1-4.7-7.9-10.3-7.9c-5.7,0.2-11.4,1.4-16.7,3.7l-1.3-10.5c5.8-2.2,11.9-3.4,18.1-3.5c11,0,21,4.5,21,17.6v37.2H88.6z
			 M67.3,61.2c0,3.5,2.5,5.8,6.2,5.8c0.5,0,1,0,1.5-0.1c7.4-0.7,13-6.9,12.9-14.3l0,0l-11.8,0.6C69.7,53.6,67.3,57.1,67.3,61.2z"/>
		<path class="st0" d="M116.5,22.4l0.8,6.7c4.7-4.4,10-7.5,16.3-7.5c8.3,0,15.6,4.5,15.6,16v38.9h-10.8V37.8c0-4.2-2.1-5.8-6.1-5.8
			c-5.2,0-11.2,4.1-15.1,9v35.6h-10.8V22.4H116.5z"/>
		<path class="st0" d="M170.9,61.8c0,3.9,1.8,5.2,4.1,5.2c2-0.1,4-0.7,5.7-1.8l0.6,9.9c-2.6,1.4-5.4,2.2-8.3,2.3
			c-7.9,0-13-5-13-15.3V32.7h-5.8V22.4h5.8V8.3l10.8-2.2v16.2h10.8v10.3h-10.8V61.8z"/>
		<path class="st0" d="M225.8,72.1c-5.2,3.3-11.1,5.1-17.2,5.2c-15.9,0-24.7-10.8-24.7-27.1c0-19.4,11-28.6,23.2-28.6
			c11.3,0,21.7,8.2,21.7,24c0,3.2-0.5,6.4-1.4,9.4h-32.2c1.5,8.2,7.1,11.9,14.1,11.9c5.1,0,10.2-1.8,15.2-5.2L225.8,72.1z
			 M195.2,44.8h22.7c0-7.3-3.9-12.9-10.5-12.9C200.7,31.9,196.6,37.9,195.2,44.8z"/>
		<path class="st0" d="M262.9,33.1c-1.6-0.7-3.3-1.1-5.1-1.2c-5.6,0-9.7,3.7-12.6,8.3v36.3h-10.8V22.4h10.1l0.8,5.8
			c2.7-3.5,6.1-6.6,11.7-6.6c2.2,0,4.4,0.4,6.4,1.3L262.9,33.1z"/>
		<path class="st0" d="M25.7,0c15.1,0,23.1,9.4,23.1,21.5c-0.2,6.6-3.6,12.6-9,16.3c6.6,3.6,10.7,10.5,10.8,18
			c0,16.7-14,21.4-28.7,21.4c-3.3,0-6.5-0.2-9.7-0.6C8.4,76.1,2.6,75.6,0,82V0H25.7z M10.8,32.8h14.9c8.6,0,12.5-5.1,12.5-11.3
			c0-6.4-3.9-11.3-12.4-11.3h-15V32.8z M10.8,43.1V66c3.7,0.7,7.4,1,11.2,1c8.8,0,17.9-1.9,17.9-11.4c0-6.7-5.1-12.5-13.3-12.5
			L10.8,43.1z"/>
	</g>
</g>
</svg>
