<svg id="Layer_1" data-name="Layer 1" xmlns="http://www.w3.org/2000/svg" viewBox="0 0 1179 763"><defs><style>.cls-1{fill:#888;}.cls-2{fill:#2dbd60;}</style></defs><title>Vertical</title><path class="cls-1" d="M523.7,232.32h19.36a2,2,0,0,0,2-2s-.24-16.59-.24-21.19v-.06a21.8,21.8,0,0,1,2.18-9.85l.66-1.24a.41.41,0,0,0-.22.12l-37.6,37.27a.41.41,0,0,0-.14.22l2-1A28.93,28.93,0,0,1,523.7,232.32Zm150.56-4.06c-1.54-8.22-6.43-12.28-10.86-13.87-4.76-1.72-14.44-3.51-26.6-4.94a206.89,206.89,0,0,0-28.22-.85c-.84-5.71-4.84-10.92-9.32-12.72-11.93-4.8-30.38-3.64-35.11-2.31-3.76,1.05-7.93,3.21-10.25,6.52a15.17,15.17,0,0,0-2.57,9c0,2.24.06,7.54.12,12.24s.12,8.93.12,9a7.63,7.63,0,0,1-7.63,7.62H524.6a23.31,23.31,0,0,0-9.69,1.79,13.49,13.49,0,0,0-5.42,4.32c-2.58,3.47-3,7.75-3,12.12a104.07,104.07,0,0,0,.9,10.47c.72,5.35,6.52,42.69,12,54,2.14,4.42,3.56,6.26,7.75,8.21,9.35,4,30.7,8.45,40.71,9.73s16.26,4,20-3.87c0,0,.75-1.95,1.76-4.78a77.56,77.56,0,0,0,3.7-24.85.47.47,0,1,1,.94,0c0,4.45-.85,20.22,11.06,24.44,4.71,1.67,14.46,3.15,24.37,4.32,9,1,15.47,4.55,15.47,27.54,0,14-2.94,15.9-18.3,15.9-12.45,0-17.2.32-17.2-9.56,0-8,7.91-7.16,13.77-7.16,2.62,0,.72-1.95.72-6.88s3.07-7.74.16-7.81c-20.27-.56-32.19,0-32.19,25.31,0,23,8.81,27.27,37.57,27.27,22.55,0,30.5-.74,39.81-29.62,1.85-5.7,6.3-23.1,9-52.31C680.2,298.08,676.89,242.33,674.26,228.26Zm-39.31,61.62a41.24,41.24,0,0,0-8,.48c.7-5.68,3-12.65,11.35-12.35,9.19.32,10.48,9,10.51,14.88A37.8,37.8,0,0,0,634.95,289.88Z"/><path class="cls-2" d="M196.94,550.89H208l.53-70.85H196.94v-13.6H270.5l.9,27.55h-14.5l-1.25-14H227.9l-.18,27.73h28.1v13.6H227.54l-.18,29.52h27.92l1.79-15.75h15.75L271,564.48h-74.1Z"/><path class="cls-2" d="M388.44,480h-9.3l-34.9,84.44h-20L289.11,480h-9.84v-13.6h41.88V480H311.3l24.16,66.55h.36l24-66.55H348v-13.6h40.45Z"/><path class="cls-2" d="M398.1,550.89h11.1l.54-70.85H398.1v-13.6h73.56l.9,27.55H458.06l-1.26-14H429.06l-.18,27.73H457v13.6H428.71l-.18,29.52h27.92l1.79-15.75H474l-1.79,29.34H398.1Z"/><path class="cls-2" d="M492.42,550.89h11.1L504,480H492.42v-13.6H537.7c22.74,0,30.07,13.06,30.07,25.76,0,11.27-5.55,21.47-23.09,25.94v.36c9.13,2.5,11.46,4.83,20.59,20.57,6.08,10.2,8.23,11.81,11.63,11.81a29,29,0,0,0,4.12-.54v14.13H571c-13.24,0-14.85-1.61-25.23-22.18-9.31-18.25-11.46-19.5-18.62-19.5H523.2L523,550.89h11.63v13.59H492.42Zm31-41.69h7.7c10.55,0,17.71-5.72,17.71-14.85,0-8.94-4.47-14.31-13.43-14.31H523.56Z"/><path class="cls-2" d="M671,480H659.4v-13.6h38.47V480h-11.1l-.53,84.44H671.57l-52.44-69.77h-.35l-.54,56.18h11.64v13.59H591.39V550.89h11.1L603,480H591.39v-13.6h29l49.75,66.37h.36Z"/><path class="cls-2" d="M753.53,464.48c33.83,0,48.69,22.36,48.69,49.55,0,30.95-18.44,52.41-48.69,52.41-33.82,0-48.68-22.36-48.68-49.73C704.86,485.95,723.28,464.48,753.53,464.48Zm0,86.23c18.26,0,28.64-15.57,28.64-35.42,0-22.36-12.16-35.06-28.64-35.06-18.26,0-28.64,15.56-28.64,35.78C724.9,538,737.07,550.71,753.53,550.71Z"/><path class="cls-2" d="M833,550.89h11.1l.53-70.85H824.95l-.73,14H809.38l1.07-27.55h87.88L899.4,494H884.54l-.72-14H864.14l-.53,70.85h11.63v13.59H833Z"/><path class="cls-2" d="M910.31,550.89h11.1l.53-70.85H910.31v-13.6h73.56l.89,27.55H970.27L969,480H941.28l-.18,27.73h28.09v13.6H940.92l-.18,29.52h27.92l1.8-15.75H986.2l-1.79,29.34h-74.1Z"/></svg>