<?xml version="1.0" encoding="utf-8"?>
<!-- Generator: Adobe Illustrator 21.0.2, SVG Export Plug-In . SVG Version: 6.00 Build 0)  -->
<svg version="1.1" id="Layer_1" xmlns="http://www.w3.org/2000/svg" xmlns:xlink="http://www.w3.org/1999/xlink" x="0px" y="0px"
	 viewBox="0 0 83 32" style="enable-background:new 0 0 83 32;" xml:space="preserve">
<style type="text/css">
	.st0{clip-path:url(#SVGID_2_);}
</style>
<g>
	<defs>
		<rect id="SVGID_1_" width="83" height="32"/>
	</defs>
	<clipPath id="SVGID_2_">
		<use xlink:href="#SVGID_1_"  style="overflow:visible;"/>
	</clipPath>
	<path class="st0" d="M17.1,25.3h23.5c0,0.5-0.5,1.8-0.7,2.1H17.1V25.3"/>
	<path class="st0" d="M17.1,5h22.8c0.2,0.4,0.6,1.7,0.7,2.1H17.1V5"/>
	<path class="st0" d="M21.3,17.2h16.3c0.5,0.4,1.5,1.6,1.9,2.1H21.3V17.2"/>
	<path class="st0" d="M34,23.4h6.8c0-0.6-0.2-1.7-0.4-2.1H34V23.4"/>
	<path class="st0" d="M21.3,15.3h16.3c0.5-0.4,1.5-1.6,1.9-2.1H21.3V15.3"/>
	<path class="st0" d="M34,9.1h6.8c0,0.5-0.2,1.7-0.4,2.1H34V9.1"/>
	<path class="st0" d="M17.1,29.4h21.2c-1.9,1.6-3.5,2.1-6.5,2.1H17.1V29.4"/>
	<path class="st0" d="M17.1,3.1h21.2C36.4,1.5,34.8,1,31.8,1H17.1V3.1"/>
	<rect x="0.1" y="1" class="st0" width="14.8" height="2.1"/>
	<rect x="0.1" y="5" class="st0" width="14.8" height="2.1"/>
	<rect x="0.1" y="25.3" class="st0" width="14.8" height="2.1"/>
	<rect x="4.3" y="21.3" class="st0" width="6.4" height="2.1"/>
	<rect x="4.3" y="17.2" class="st0" width="6.4" height="2.1"/>
	<rect x="4.3" y="13.2" class="st0" width="6.4" height="2.1"/>
	<rect x="4.3" y="9.1" class="st0" width="6.4" height="2.1"/>
	<rect x="21.3" y="21.3" class="st0" width="6.4" height="2.1"/>
	<rect x="21.3" y="9.1" class="st0" width="6.4" height="2.1"/>
	<polyline class="st0" points="56.5,23.4 62.4,23.4 63.1,21.3 55.7,21.3 56.5,23.4 	"/>
	<polyline class="st0" points="55.1,19.4 63.8,19.4 64.5,17.2 54.3,17.2 55.1,19.4 	"/>
	<rect x="0.1" y="29.4" class="st0" width="14.8" height="2.1"/>
	<polyline class="st0" points="59.3,31.5 59.5,31.5 60.3,29.4 58.6,29.4 59.3,31.5 	"/>
	<rect x="46.7" y="21.3" class="st0" width="6.4" height="2.1"/>
	<rect x="46.7" y="17.2" class="st0" width="6.4" height="2.1"/>
	<rect x="42.5" y="29.4" class="st0" width="10.6" height="2.1"/>
	<rect x="42.5" y="25.3" class="st0" width="10.6" height="2.1"/>
	<polyline class="st0" points="57.9,27.5 61,27.5 61.7,25.3 57.2,25.3 57.9,27.5 	"/>
	<rect x="65.8" y="21.3" class="st0" width="6.4" height="2.1"/>
	<rect x="65.8" y="17.2" class="st0" width="6.4" height="2.1"/>
	<rect x="65.8" y="29.4" class="st0" width="10.6" height="2.1"/>
	<rect x="65.8" y="25.3" class="st0" width="10.6" height="2.1"/>
	<polyline class="st0" points="57.3,9.1 46.7,9.1 46.7,11.2 58.1,11.2 57.3,9.1 	"/>
	<polyline class="st0" points="60.1,13.2 59.4,15.1 58.8,13.2 46.7,13.2 46.7,15.3 53.1,15.3 53.1,13.6 53.7,15.3 65.2,15.3 
		65.8,13.6 65.8,13.6 65.8,13.6 65.8,15.3 72.1,15.3 72.1,13.2 60.1,13.2 	"/>
	<polyline class="st0" points="54.4,1 42.5,1 42.5,3.1 55.2,3.1 54.4,1 	"/>
	<polyline class="st0" points="55.9,5 42.5,5 42.5,7.2 56.6,7.2 55.9,5 	"/>
	<polyline class="st0" points="61.5,9.1 72.1,9.1 72.1,11.2 60.8,11.2 61.5,9.1 	"/>
	<polyline class="st0" points="64.4,1 76.4,1 76.4,3.1 63.7,3.1 64.4,1 	"/>
	<polyline class="st0" points="63,5 76.4,5 76.4,7.2 62.2,7.2 63,5 	"/>
	<path class="st0" d="M80.3,29.8c0.3,0,0.7,0,0.7-0.3c0-0.3-0.2-0.3-0.5-0.3H80v0.7H80.3 M81.2,30.9h-0.3L80.4,30H80v0.9h-0.2V29
		h0.8c0.5,0,0.7,0.2,0.7,0.5c0,0.4-0.3,0.5-0.6,0.5L81.2,30.9z M81.8,30c0-0.8-0.6-1.5-1.4-1.5c-0.8,0-1.4,0.6-1.4,1.5
		c0,0.8,0.6,1.5,1.4,1.5C81.2,31.4,81.8,30.8,81.8,30z M78.7,30c0-0.9,0.8-1.7,1.7-1.7c0.9,0,1.7,0.8,1.7,1.7c0,0.9-0.7,1.7-1.7,1.7
		C79.4,31.6,78.7,30.9,78.7,30z"/>
</g>
</svg>
