<?xml version="1.0" encoding="UTF-8" standalone="no"?><!DOCTYPE svg PUBLIC "-//W3C//DTD SVG 1.1//EN" "http://www.w3.org/Graphics/SVG/1.1/DTD/svg11.dtd"><svg width="100%" height="100%" viewBox="0 0 240 80" version="1.1" xmlns="http://www.w3.org/2000/svg" xmlns:xlink="http://www.w3.org/1999/xlink" xml:space="preserve" style="fill-rule:evenodd;clip-rule:evenodd;stroke-linecap:round;stroke-linejoin:round;stroke-miterlimit:1.41421;"><g id="Grid-O"><g id="Diagonals--Layer---Layer-"><path id="Negative-Slope" d="M58.832,55.461l-51.369,-51.922" style="fill:none;stroke:#ccc;stroke-width:0.33px;"/><path id="Positive-Slope" d="M7.186,55.185l51.922,-51.37" style="fill:none;stroke:#ccc;stroke-width:0.33px;"/></g><g id="Lines--Layer-"><path id="Middle-Vertical" d="M32.952,55.324l0.391,-51.648" style="fill:none;stroke:#ccc;stroke-width:0.33px;"/><path id="Left-Vertical" d="M20.04,55.324l0.391,-51.648" style="fill:none;stroke:#ccc;stroke-width:0.33px;"/><path id="Right-Vertical" d="M45.863,55.324l0.392,-51.648" style="fill:none;stroke:#ccc;stroke-width:0.33px;"/><path id="Middle-Horizontal" d="M7.324,29.304l51.647,0.392" style="fill:none;stroke:#ccc;stroke-width:0.33px;"/><path id="Top-Horizontal" d="M7.324,16.393l51.647,0.391" style="fill:none;stroke:#ccc;stroke-width:0.33px;"/><path id="Bottom-Horizontal" d="M7.324,42.216l51.647,0.391" style="fill:none;stroke:#ccc;stroke-width:0.33px;"/></g><g id="Circles"><circle id="Middle-circle" cx="33.147" cy="29.5" r="18.259" style="fill:none;stroke:#ccc;stroke-width:0.33px;"/><circle id="Inner-circle" cx="33.147" cy="29.5" r="12.912" style="fill:none;stroke:#ccc;stroke-width:0.33px;"/><circle id="Outer-circle" cx="33.147" cy="29.5" r="25.824" style="fill:none;stroke:#ccc;stroke-width:0.33px;"/></g><rect id="Outer-square" x="7.324" y="3.676" width="51.647" height="51.647" style="fill:none;stroke:#ccc;stroke-width:0.33px;"/></g><g id="Lowercase-S"><path d="M213.214,52.894l0,0.059l12.936,0l0,-0.059l-12.936,0Z" style="fill:none;stroke:#fff;stroke-width:3.33px;"/><path d="M225.758,52.967c3.894,0 7.056,-2.635 7.056,-5.88c0,-3.246 -3.162,-5.88 -7.056,-5.88c3.894,0 7.056,2.634 7.056,5.88c0,3.245 -3.162,5.88 -7.056,5.88Z" style="fill:none;stroke:#fff;stroke-width:3.33px;"/><path d="M219.878,41.164l0,0.059l5.88,0l0,-0.059l-5.88,0Z" style="fill:none;stroke:#fff;stroke-width:3.33px;"/><path d="M220.27,29.433c-3.894,0 -7.056,2.635 -7.056,5.88c0,3.246 3.162,5.88 7.056,5.88c-3.894,0 -7.056,-2.634 -7.056,-5.88c0,-3.245 3.162,-5.88 7.056,-5.88Z" style="fill:none;stroke:#fff;stroke-width:3.33px;"/><path d="M219.878,29.433l0,0.06l12.936,0l0,-0.06l-12.936,0Z" style="fill:none;stroke:#fff;stroke-width:3.33px;"/></g><g id="Lowercase-O"><circle id="o" cx="191.714" cy="41.214" r="11.767" style="fill:none;stroke:#fff;stroke-width:3.33px;"/></g><g id="Lowercase-M"><rect x="170.147" y="36.507" width="0.059" height="16.473" style="fill:none;stroke:#fff;stroke-width:3.33px;"/><rect x="152.497" y="36.507" width="0.059" height="16.473" style="fill:none;stroke:#fff;stroke-width:3.33px;"/><rect x="134.847" y="36.507" width="0.059" height="16.473" style="fill:none;stroke:#fff;stroke-width:3.33px;"/><path d="M170.177,36.507c0,-3.896 -3.954,-7.06 -8.825,-7.06c-4.871,0 -8.825,3.164 -8.825,7.06c0,-3.896 3.954,-7.06 8.825,-7.06c4.871,0 8.825,3.164 8.825,7.06Z" style="fill:none;stroke:#fff;stroke-width:3.33px;"/><path d="M152.542,36.507c0,-3.896 -3.955,-7.06 -8.825,-7.06c-4.871,0 -8.825,3.164 -8.825,7.06c0,-3.896 3.954,-7.06 8.825,-7.06c4.87,0 8.825,3.164 8.825,7.06Z" style="fill:none;stroke:#fff;stroke-width:3.33px;"/></g><g id="Lowercase-Y"><rect x="125.057" y="29.504" width="0.059" height="46.952" style="fill:none;stroke:#fff;stroke-width:3.33px;"/><path d="M101.61,41.243c0,6.478 5.26,11.738 11.738,11.738c6.479,0 11.738,-5.26 11.738,-11.738c0,6.478 -5.259,11.738 -11.738,11.738c-6.478,0 -11.738,-5.26 -11.738,-11.738Z" style="fill:none;stroke:#fff;stroke-width:3.33px;"/><rect x="101.581" y="29.504" width="0.059" height="11.738" style="fill:none;stroke:#fff;stroke-width:3.33px;"/></g><g id="Lowercase-N"><rect x="91.802" y="41.214" width="0.059" height="11.767" style="fill:none;stroke:#fff;stroke-width:3.33px;"/><path id="_-Crescent-" d="M91.832,41.214c0,-6.494 -5.26,-11.767 -11.738,-11.767c-6.479,0 -11.738,5.273 -11.738,11.767c0,-6.494 5.259,-11.767 11.738,-11.767c6.478,0 11.738,5.273 11.738,11.767Z" style="fill:none;stroke:#fff;stroke-width:3.33px;"/><rect x="68.326" y="41.214" width="0.059" height="11.767" style="fill:none;stroke:#fff;stroke-width:3.33px;"/></g><g id="Uppercase-O"><ellipse id="Small-Orange-Dot" cx="54.671" cy="7.963" rx="3.913" ry="3.915" style="fill:#f90;"/><ellipse id="Large-Orange-Dot" cx="41.955" cy="20.688" rx="8.804" ry="8.81" style="fill:#f90;"/><circle id="o1" cx="33.133" cy="29.5" r="23.5" style="fill:none;stroke:#fff;stroke-width:3.33px;"/></g><text x="134.833px" y="69.391px" style="font-family:'Avenir-Book', 'Avenir';font-size:11.333px;fill:#fff;">CREA<tspan x="163.257px 169.763px " y="69.391px 69.391px ">TE</tspan> YOUR APP</text></svg>