<?xml version="1.0" encoding="utf-8"?>
<!-- Generator: Adobe Illustrator 21.0.2, SVG Export Plug-In . SVG Version: 6.00 Build 0)  -->
<svg version="1.1" id="Layer_1" xmlns="http://www.w3.org/2000/svg" xmlns:xlink="http://www.w3.org/1999/xlink" x="0px" y="0px"
	 viewBox="0 0 560.3 199.8" style="enable-background:new 0 0 560.3 199.8;" xml:space="preserve">
<style type="text/css">
	.st0{fill-rule:evenodd;clip-rule:evenodd;fill:#FFFFFF;}
</style>
<g>
	<path class="st0" d="M193.9,83c-10,0-17.9,7.9-17.9,17.9s7.9,17.9,17.9,17.9c10.1,0,17.9-7.9,17.9-17.9S204,83,193.9,83z
		 M207.3,100.9c0,7.8-5.7,13.7-13.3,13.7c-7.6,0-13.3-5.9-13.3-13.7s5.7-13.7,13.3-13.7C201.5,87.2,207.3,93,207.3,100.9z"/>
	<polygon class="st0" points="240,108.8 218.2,82.7 217,82.7 217,118.3 221.3,118.3 221.3,92.9 243.1,119 244.3,119 244.3,83.4 
		240,83.4 	"/>
	<polygon class="st0" points="274.2,83.4 263.7,102.6 253.3,83.4 248.3,83.4 261.4,107.3 261.4,118.3 265.9,118.3 265.9,107.3 
		279,83.4 	"/>
	<path class="st0" d="M306.3,83.4h-4.9l-7.7,12.1l-7.7-12.1h-5.1l10.4,16.2c-1,1.4-3.7,5.5-11.6,17.8l-0.6,1h4.9l0.2-0.3
		c2.3-3.6,7.8-12.1,9.5-14.8l9.5,14.8l0.2,0.3h5.1l-12.2-19.1L306.3,83.4z"/>
	<path class="st0" d="M342.1,98.9c2.2-1.5,3.4-3.7,3.4-6.6c0-5.4-4-8.9-10.1-8.9h-11.6v35h12.9c7,0,11.5-4.1,11.5-10.4
		C348.1,103.7,345.9,100.4,342.1,98.9z M328.2,97.3v-9.8h7c3.8,0,5.8,1.7,5.8,4.8c0,3.3-1.8,5-5.3,5H328.2z M343.6,107.8
		c0,2.9-1.3,6.4-7.3,6.4h-8.2v-12.9h8.1C340.9,101.3,343.6,103.7,343.6,107.8z"/>
	<polygon class="st0" points="357.5,107.2 372.8,107.2 372.8,103.1 357.5,103.1 357.5,87.5 374.7,87.5 374.7,83.4 353.1,83.4 
		353.1,118.3 375.3,118.3 375.3,114.2 357.5,114.2 	"/>
	<path class="st0" d="M393.6,82.6h-1.1l-14.7,35.7h4.6l2.4-5.8h16.6l2.3,5.8h4.7L393.7,83L393.6,82.6z M399.6,108.4h-13.2l6.7-16.4
		C395,96.8,398.6,105.7,399.6,108.4z"/>
	<path class="st0" d="M436.9,109.2c-2.6,3.5-6.4,5.4-11,5.4c-7.7,0-13.3-5.8-13.3-13.7c0-7.8,5.6-13.7,13-13.7
		c4.3,0,7.8,1.7,10.3,4.9l0.4,0.5l3.5-2.5l-0.4-0.5c-3.3-4.3-8-6.5-13.7-6.5c-10.1,0-17.7,7.7-17.7,17.9c0,4.9,1.8,9.5,5,12.7
		c3.3,3.3,7.8,5.1,12.7,5.1c6.1,0,11-2.4,14.6-7l0.4-0.5l-3.5-2.5L436.9,109.2z"/>
	<path class="st0" d="M460.1,83c-10.1,0-17.9,7.9-17.9,17.9s7.9,17.9,17.9,17.9c10,0,17.9-7.9,17.9-17.9S470.2,83,460.1,83z
		 M473.4,100.9c0,7.8-5.7,13.7-13.3,13.7s-13.3-5.9-13.3-13.7s5.7-13.7,13.3-13.7S473.4,93,473.4,100.9z"/>
	<polygon class="st0" points="506.2,83.4 506.2,108.8 484.4,82.7 483.2,82.7 483.2,118.3 487.5,118.3 487.5,92.9 509.3,119 
		510.5,119 510.5,83.4 	"/>
	<path class="st0" d="M99.9,50.1c-25.3,0-46.7,19-49.7,44.1c-0.1,0.8,0.5,1.5,1.2,1.6c0.8,0.1,1.5-0.5,1.6-1.2
		C55.8,70.8,76,53,99.9,53c24,0,44.2,18,47,41.9c0.1,0.7,0.7,1.3,1.4,1.3c0.1,0,0.1,0,0.2,0c0.8-0.1,1.3-0.8,1.3-1.6
		C146.8,69.2,125.4,50.1,99.9,50.1z"/>
	<path class="st0" d="M140,96.1c0.1,0,0.1,0,0.2,0c0.8-0.1,1.3-0.8,1.2-1.6c-2.9-20.6-20.7-36.2-41.6-36.2
		c-20.7,0-38.6,15.5-41.5,35.9c-0.1,0.8,0.4,1.5,1.2,1.6c0.8,0.1,1.5-0.4,1.6-1.2c2.8-19.1,19.4-33.5,38.7-33.5
		c19.4,0,36.1,14.5,38.7,33.7C138.7,95.5,139.4,96.1,140,96.1z"/>
	<path class="st0" d="M148.4,104.7c-0.8-0.1-1.5,0.5-1.6,1.2c-2.9,23.7-23,41.6-46.9,41.6c-24,0-44.2-18-47-41.9
		c-0.1-0.8-0.8-1.3-1.6-1.3c-0.8,0.1-1.3,0.8-1.3,1.6c2.9,25.3,24.3,44.4,49.8,44.4c25.3,0,46.7-19,49.7-44.1
		C149.7,105.5,149.2,104.8,148.4,104.7z"/>
	<path class="st0" d="M99.9,142.2c20.7,0,38.6-15.5,41.5-35.9c0.1-0.8-0.4-1.5-1.2-1.6c-0.8-0.1-1.5,0.4-1.6,1.2
		c-2.8,19.1-19.4,33.5-38.7,33.5c-19.4,0-36.1-14.5-38.7-33.7c-0.1-0.8-0.8-1.3-1.6-1.2c-0.8,0.1-1.3,0.8-1.2,1.6
		C61.2,126.6,79.1,142.2,99.9,142.2z"/>
	<path class="st0" d="M68.4,104.5c-0.8,0.1-1.3,0.9-1.1,1.7c2.8,15.8,16.6,27.4,32.7,27.4c16,0,29.7-11.4,32.7-27.2
		c0.1-0.8-0.4-1.5-1.1-1.7c-0.8-0.1-1.5,0.4-1.7,1.1c-2.7,14.4-15.2,24.8-29.9,24.8c-14.7,0-27.3-10.5-29.9-25
		C69.9,104.8,69.1,104.3,68.4,104.5z"/>
	<path class="st0" d="M99.9,67c-16,0-29.7,11.4-32.7,27.2c-0.1,0.8,0.4,1.5,1.1,1.7c0.8,0.1,1.5-0.4,1.7-1.1
		c2.7-14.4,15.2-24.8,29.9-24.8c14.7,0,27.3,10.5,29.9,25c0.1,0.7,0.7,1.2,1.4,1.2c0.1,0,0.2,0,0.3,0c0.8-0.1,1.3-0.9,1.1-1.7
		C129.8,78.5,116,67,99.9,67z"/>
	<path class="st0" d="M108.4,105.2c0-3.5-2.3-5.5-6.3-5.5h-7.1v10.9h7.2C106.2,110.6,108.4,108.7,108.4,105.2z"/>
	<path class="st0" d="M106.3,92.3c0-2.7-1.8-4-5-4h-6.2v8.2h6.7C104.7,96.5,106.3,95.2,106.3,92.3z"/>
	<path class="st0" d="M99.9,122.8c12.5,0,22.6-10.1,22.6-22.6c0-12.5-10.1-22.6-22.6-22.6s-22.6,10.1-22.6,22.6
		C77.3,112.7,87.4,122.8,99.9,122.8z M91.4,85h10c5,0,8.2,3.1,8.2,7.5c0,2.4-1,4.4-3,5.6c3.3,1.2,5.2,4,5.2,7.5
		c0,4.1-2.5,8.6-9.4,8.6H91.4V85z"/>
</g>
</svg>
