<?xml version="1.0" encoding="utf-8"?>
<!-- Generator: Adobe Illustrator 21.0.0, SVG Export Plug-In . SVG Version: 6.00 Build 0)  -->
<svg version="1.1" id="Layer_1" xmlns="http://www.w3.org/2000/svg" xmlns:xlink="http://www.w3.org/1999/xlink" x="0px" y="0px"
	 viewBox="0 0 1051 847" style="enable-background:new 0 0 1051 847;" xml:space="preserve">
<style type="text/css">
	.st0{fill:#F85567;}
	.st1{fill:#F85469;}
	.st2{fill:#F55077;}
	.st3{fill:#F55079;}
	.st4{fill:#F55175;}
	.st5{fill:#F7546B;}
	.st6{fill:#F7536E;}
	.st7{fill:#F8546B;}
	.st8{fill:#F55176;}
	.st9{fill:#F65271;}
	.st10{fill:#F7536D;}
	.st11{fill:#F65174;}
	.st12{fill:#F7536F;}
	.st13{fill:#F8546A;}
	.st14{fill:#F65272;}
	.st15{fill:#F7536C;}
</style>
<g id="Layer_1_xA0_Image_1_">
	<g>
		<g>
			<path class="st0" d="M548,1c4.2,2.3,8.9,1.2,13.4,1.8C586.4,6,610.6,12.3,634,22c2.1,0.9,4.5,0.9,6.1,2.8c0.7,1.8-0.6,3-1.7,3.8
				c-2.8,2-7.3,2.6-6.2,7.8c0.1,0.6-0.9,0.9-1.6,0.9c-4.1-0.2-4.8,3.8-7.1,5.5c-6.1,4.5-6.2,14-14.6,16.2c-1.6,0.4-1.5,2.5-2.2,3.7
				c-2,3.5-3.6,7.9-9.1,6.4c-1.2-0.3-2,0.2-2.4,1.2c-1.8,5.4-8.3,7.9-9,14.1c-0.1,0.6-0.9,1.6-1.2,1.4c-5.8-2.7-5.4,3.8-8.1,5.6
				c-3.2,2.1-5.8,4.9-6.2,9.2c-0.2,2.1-2.2,2.2-3.7,2.9c-3.4,1.4-6.9,2.6-7,7.4c-0.1,2.3-2.3,3.5-4.4,4.4c-1.8,0.8-3.7,1.7-4.7,3.5
				c-1.5,2.9-3,5.2-7,5.4c-2.7,0.1-3.2,3.6-4.1,5.8c-1.2,2.8-2.6,5-5.7,5.7c-0.8,0.2-1.8,0.5-2.2,1.2c-4,7-11.6,10.1-16.9,15.6
				c-0.5,0.5-0.7,1.1-0.9,1.8c-3.2,7.5-5.3,9.2-12.7,10.7c0.7,6.3,0.7,6.3-5.3,8.4c-1,0.3-2.2,0.6-2.4,1.6c-1.2,7.2-9.8,9-11.4,15.9
				c-0.4,1.5-2.2,1.9-3.7,2.1c-2,0.3-3.9,0.8-5.7,1.7c-2.1,1.1-2.5,2.4-0.9,4.4c3.1,3.8,3,3.9-2,4.6c-2.9,0.4-4.8,2.1-6.3,4.5
				c-0.6,1-0.7,2.4-1.6,3.1c-6.2,4.6-10.5,10.7-14.4,17.1c-2.7,4.5-7.4,7.1-10.4,11.3c-1,1.4-2.6,1.2-4,1.5c-4.4,0.9-8,2.8-10.3,7
				c-2.1,3.8-3.9,8.1-8.8,9.7c-2.3,0.8-2.5,3.2-2.6,5.5c-0.2,2.7-1.2,4.7-4.5,3.4c-2.3-0.9-2.9,0.3-3.3,2.2c-0.8,3.8-3,6.2-7,6.9
				c-1.7,0.3-3.3,1.1-4,2.7c-2.7,5.6-7.3,9.8-10.1,15.4c-2.1,4.2-6.1,6.9-10.4,9c-1.5,0.7-3.1,1.2-3.5,3.2c-0.8,4.1-3.7,6.5-7.2,7.7
				c-5,1.8-7.8,5.7-10.1,9.8c-1.5,2.8-3.1,4.6-6.4,4.6c-1.8,0-3.5,0.4-2.3,2.9c1.2,2.5-0.2,4.1-1.9,5.6c-0.2,0.2-0.5,0.5-0.8,0.6
				c-11.1,3.8-15.8,14.1-22.5,22.2c-0.4,0.5-0.8,1.2-1.4,1.4c-4.6,2-8.7,4.2-7.1,10.4c0.1,0.6-0.5,1.4-1.1,1.6
				c-4.2,1.5-7.1,4.7-10.2,7.6c-1.1,1-2.4,0.6-1.8,3.1c0.5,2.1-2.1,2.1-3.7,1.6c-2.5-0.7-3.8,0.2-4.4,2.6c-0.3,1.5-1,2.8-2,4
				c-3.2,3.7-7.1,6.9-9.4,11.5c-0.8,1.6-2.5,3.2-4.9,2.5c-7.9-14.7-13.2-30.5-17.9-46.4c-3.5-12.1-6-24.4-7.9-36.8
				c-3.1-20.1-3.2-40.4-1.9-60.6c1.9-30.7,9-60.4,21.1-88.8c9.9-23.3,22.5-45,38.4-64.9c8.7-10.9,18-21.2,28-30.8
				c16.3-15.6,34.4-28.9,54-40.1C404,27.2,423.2,19,443.3,12.9c15.5-4.7,31.3-8,47.4-10.1c4.4-0.6,9.2,0.5,13.4-1.8
				C518.7,1,533.3,1,548,1z"/>
			<path class="st1" d="M1,730c6.3,0,12.7-0.2,19,0.1c3.4,0.1,4.2-1.1,4.1-4.3c-0.2-7.7,0.1-15.3-0.1-23c-0.1-3.1,0.9-3.9,3.9-3.9
				C41,698.8,41,698.7,41,711.6c0,4.3,0.3,8.7-0.1,13c-0.3,4.2,0.6,5.9,5.3,5.6c7.5-0.5,15,0.1,22.5-0.2c3.6-0.1,4.4,1.1,4.4,4.5
				C73,745,73.1,745,62.4,745c-6,0-12,0.1-18,0c-2.5-0.1-3.5,0.6-3.5,3.3c0.1,21,0,42,0.1,63c0,3,0.7,6.2,1.8,9.1
				c2.9,7.7,10.6,11.5,18.6,9.4c3.5-0.9,7-1.6,10.4-3.6c-0.2,4.6,1.6,8.5,1.1,12.7c-0.2,1.5,0.1,3-1.8,3.5
				c-11.9,3.2-23.8,4.9-35.2-1.8c-8.7-5.2-11.8-13.4-11.9-22.9c-0.2-22.7-0.2-45.3,0-68c0-3.6-0.7-5-4.6-4.8
				C13.3,745.3,7.2,745,1,745C1,740,1,735,1,730z"/>
			<path class="st2" d="M990.9,793.1c-10.7-2.3-20.1-6.5-26.6-16c-4.9-7.2-4.6-27.9,1.7-35.7c7.7-9.6,17.7-14.4,29.6-16.4
				c13-2.2,25.4-0.5,37.7,4c7,2.6,12.3,7.4,17.7,12.1c0,0.3,0,0.7,0,1c-4.1,7.1-11.2,11.2-17,16.6c-2.3,2.2-4.5,0.5-6.4-1.4
				c-6.8-6.4-14.8-10-24.4-8.9c-3.2,0.4-6.2,1-9,2.7c-6.2,3.8-6,11.3,0.3,14.8c5.1,2.8,10.9,4,16.5,5.4c2.1,0.5,4.3,0.8,6,2.2
				c1.2,1.3,1.6,2.9,0.7,4.5c-0.8,1.5-1,3.1-0.4,4.7c0.6,1.7,0.5,3.3-1.2,4.3c-1.8,1.1-3.1-0.1-4.4-1.2c-0.8-0.7-1.1-2.1-3.1-1.6
				c3.1,5.2,0.8,9.1-2.8,12.8c-1-0.3-2.4,0.3-3.1-1.1c0-0.3,0.1-0.7,0.1-0.8c-0.5-0.2-0.6,0.4-1,0.6
				C998.1,795.7,994.5,794.6,990.9,793.1L990.9,793.1z"/>
			<path class="st3" d="M1006,797.1c1.2-2.3,1.1-5.1,3.3-7.1c1.4-1.3-0.2-2.2-1.2-3.1c-2-1.9-1-3.7,0.7-5c2.4-1.7,1.9,1.2,2.8,2
				c1.3,1.1,2,3.6,4.2,2.4c2-1.1,1-2.8-0.1-4.2c-1-1.2-0.9-2.6,0.3-3.5c1.6-1.3,1.5-2.8,1-4.4c1.1-1.2,2.5-0.8,3.7-0.4
				c7.9,2.3,15.3,5.5,21.5,11.2c5.4,5,8.4,11,8.3,18.5c0,2.5,0,5,0,7.5c0,18.6-12.6,32.7-31.2,35.2c-3.4,0.5-6.9-0.2-10.3,0.9
				c-4.7,0-9.3,0-14,0c-4.5-1-9.1-1.8-13.6-3.1c-9.7-2.8-18.7-7.1-25.7-14.7c-1.7-1.9-1.9-2.6,0.4-4.5c4.6-3.7,8.7-8.2,12.9-12.4
				c2.8-2.8,4.8-3.4,8.2,0.1c9.3,9.4,20.8,12.9,33.8,9.5c6-1.5,9.7-6,10-10.7c0.3-5.2-2.5-8.9-8.8-11.7
				C1010.1,798.7,1008,797.9,1006,797.1z"/>
			<path class="st4" d="M771,847c-5.5-1.9-11.3-1.9-16.8-4c-10.2-3.8-19.4-9.1-26.1-18.1c0.8-3,0.8-6.8,5.8-3.9
				c2.1,1.3,2.6-0.7,2.8-2.1c0.5-3.2,1.5-5.6,5.3-6.1c1.8-0.2,1.9-2.6,3.1-3.6c1.9-1.4,2.8-4.2,5.7-4.2c5.4,9.9,13.8,16,24.9,16.8
				c8.9,0.6,17.6-1.7,24.3-8.4c2-2,3-2.1,4.9,0c4.5,4.9,9.3,9.6,14.1,14.1c2.1,2,2,3.2,0,5.1c-8.7,7.9-19.1,11.8-30.5,13.4
				c-1.2,0.2-2.7-0.6-3.5,1C780.3,847,775.7,847,771,847z"/>
			<path class="st1" d="M271.9,406c3-1.9,5.4-4,6.4-7.8c0.8-3.1,5-3.5,6.6-6.4c0.7-1.4,2.1-2.4,2.2-4.3c0.3-3.6,1.9-5.3,5.6-3.3
				c1.1,0.6,2.9,1.5,3.1-0.6c0.2-2.3-2.4,0.4-3-1.3c0.4-1.3,1.3-2.3,2.8-2c1.3,0.2,2.7,0,3.1-1c1.6-4,4.8-5.6,8.7-6.7
				c2-0.5,1.3-2.2,0.9-3.8c-0.7-3.4-0.2-6,4-7c5.8-1.4,8.4-7,11.1-11.3c3.2-5.1,6-9.7,12.1-11.6c2.1-0.7,3.9-2.4,5.7-3.9
				c1.4-1.1,2.2-2.3,0.6-4.1c-2.6-3.1-0.7-4.2,2.3-4.1c3.3,0.1,4.8-0.8,6.5-4.2c2-3.8,4.5-8.2,9.8-9.8c3.6-1.1,8.2-2.8,7-8.6
				c-0.2-1,0.7-1.4,1.5-1.6c8-1.8,12-8,15.8-14.4c2.2-3.7,5.4-6.6,7.1-10.7c0.9-2.2,2.9-3,5.2-3.3c4.1-0.4,5.7-3.1,6-6.7
				c0.2-3.4,0.8-4.9,4.3-2.4c2.6,1.9,3.8,0.4,3.3-2.2c-0.7-4.1,0.9-6.3,4.7-7.3c4.5-1.2,5.1-5.8,7.1-9c2.7-4.5,6.6-6.2,11.3-7
				c0.5-0.1,1.4,0.1,1.4,0c1.2-4.4,6.9-4.4,8.3-8.8c1-3.1,5.1-4,6.4-7.3c0.4-1.1,2-1.7,1.5-3.4c-0.7-2.5,1.1-3.4,3-4.4
				c3.6-1.8,6.4-4.1,8.1-8.2c1.8-4.2,5.6-6.9,10.9-5.2c0-0.5,0.1-1,0-1.1c-1.8-1.4-4.5-2.3-4.1-5.1c0.4-3.1,3.6-3.2,5.8-3.8
				c3.8-1,7.6-1.4,8-6.5c0.1-1.4,1.6-2.5,3.1-3.1c2-0.7,3.6-2.3,4.2-4c1.6-4.3,3.3-7.9,8.8-7.7c1.7,0,2-2,1.5-3.6
				c-0.6-1.7-1-3.4-0.9-5.3c5.2,1.9,11.7-1.6,12.9-7.3c0.5-2.5,0.9-4.5,3.7-5.1c1.5-0.3,1.9-1.7,2.5-2.9c1.1-2,1.5-4.4,5-2.9
				c1.9,0.8,2.7-1.4,3.1-3c0.7-2.5,2.1-5.3,4.4-5.7c6.4-1.2,7.5-6.6,9.6-11.2c0.6-1.4,1.4-2.7,2.9-2.1c3.4,1.4,4.4-0.2,5.3-3.1
				c0.6-2.2,2.5-3.5,4.5-4.5c2.7-1.3,5.7-1.4,5.2-6.4c-0.3-3.2,4.6-5.3,8.2-6.2c2.2-0.5,3.5-0.8,2.4-3.4c-0.6-1.6,0.9-2.3,1.7-3.3
				c2.6-3.7,6.8-5.9,8.5-10.4c1.5-4,3.5-1.6,5.7,1.5c-0.8-9.5,8.9-11.8,9.9-19.2c0.1-0.7,0.8-0.9,1.6-0.6c5.3,1.5,8.2,0,9.1-5.6
				c0.4-2.7,2.1-3.2,3.8-3.8c3.1-1,4.9-2.7,5.9-6c0.8-3,2.5-5.9,5.7-7.1c1.1-0.4,1.6-1,1.7-2.2c0.5-5.2,3.8-6.5,8.5-5.6
				c0.1-2-1.1-3.7-0.3-5.5c0.4-0.8,0.6-2.5,1.7-2c4.5,2.2,5.1-2.1,7.2-4c17.6,6.9,33.4,16.8,48.9,27.5c11.1,7.6,21.1,16.5,31.1,25.5
				c0.9,1.2,0.6,2.5-0.5,3.1c-8,4.2-12.2,11.8-17,18.8c-1.6,2.2-3.7,3-6.5,3c-4.4-0.1-7.7,1.1-10.2,5.5c-1.8,3.1-4.6,5.9-7,8.8
				c-2.4,3-4.5,6-6.3,9.5c-2,3.9-5.2,7-10.6,6.6c2.4,1.3,4.8,2.3,3.5,5.6c-1.1,2.7-5.1,5.3-8.1,4.3c-3.2-1-4.4,0.5-5.1,3
				c-0.9,3-1.9,5.5-5.3,6.7c-2.3,0.8-2.6,3.3-2.9,5.5c-0.6,3.7-2.4,5.5-6.2,4c-2.7-1.1-4.1,0.2-4.8,2.6c-0.9,3.2-2.7,5.5-5.5,7.4
				c-2.5,1.7-3.5,4.8-4.7,7.5c-1.4,3-3.4,3.8-6.3,1.9c1.1,1.7,2.5,3.4,1.3,5.5c-1.2,2.1-3.2,1.7-5.3,1.4c-3.6-0.5-7.8,3.1-8.2,6.9
				c-0.2,2-1.2,3.3-3,3.3c-2.9,0.1-4.4,2-5.9,4c-3.5,4.8-6.9,9.5-10,14.5c-3.5,5.4-8,10.7-12.6,15.6c-1.1,1.2-2.6,2.2-4.2,2.6
				c-3.4,0.9-6.1,2.4-7.4,6c-0.5,1.3-1.8,1.9-3.1,2.4c-3.2,1.3-5.3,3.2-4.8,7.2c0.3,2.1-1.3,3.4-3.2,3.9c-2.7,0.7-4,2.7-5.3,4.9
				c-1.2,2.2-1.5,6.1-5.8,3.5c-0.9-0.5-1.7,0.6-1.4,1.4c1.8,5.8-2.4,6.3-6.2,7.2c-0.7,0.2-1.2,0.5-1.8,0.8
				c-21.7-1.9-40.5,11.1-46.7,33.6c-1.8,6.4-1.1,12.9-0.2,19.4c-3.1,5.5-5.7,11.4-12.5,13.5c-2.5,0.7-3,2.8-3.2,5.1
				c-0.2,1.7,0.2,3.9-1.9,4.8c-2,0.8-2.3-2-3.1-2.2c-5.3,9.1-13.3,15.2-20.4,22.1c-25.4-21.8-61-9.6-70.2,19.7
				c-4.7,14.9-1.3,28.8,8.3,41.1c2,3.7-0.1,5.4-3.3,6.1c-4.3,1-8.1,2.1-8.3,7.5c-6,3.7-6.8,11.7-12.8,15.6c-1.3,0.8-2.3,1.9-3.2,3.1
				c-0.5,0.6-0.8,1.7-1.5,2c-8,2.7-10.5,11.7-17.6,15.4c-2.3,1.2-3.3,2.4-3,4.9c0.1,0.7-0.6,1.1-1.4,0.8
				c-16.5-15.3-30.4-32.8-42.2-51.9C281.3,424.4,275.6,415.7,271.9,406z"/>
			<path class="st5" d="M530,272.8c1.5-2.5,4.3-2.2,6.4-3.3c3.2-1.6-2.3-4.3,0.4-6.4c0.7-0.6,1-1.7,1.4-2.5c1.9,0.3,2.3,2,3.4,2.9
				c0.4-0.2,0.8-0.2,0.9-0.4c1.8-4.1,2.4-9.1,8.5-9.4c1.4-0.1,2.2-1.7,1.5-3.1c-2.1-4.3,1.1-5.9,3.9-7.1c2.4-1.1,4.3-1.9,4.9-4.8
				c0.4-1.8,2.2-3.2,4.4-3.6c5.1-0.8,8.6-3.8,10.5-8.6c1-2.6,2.3-4.8,5.4-6c2.4-1,4.7-3.3,4.3-6.7c-0.2-1.9,1-3,2.1-4.3
				c2.8-3.1,5.6-6.1,8.2-9.4c1.3-1.6,2-3,4.7-2.3c2.2,0.6,3.6-0.9,1.9-3.2c-1.5-2.1,0-3.4,1.4-3.9c2.2-0.8,4.2-1.2,5.2-3.8
				c0.5-1.3,2-0.3,3,0.4c1.5,1.1,3.2,1.5,4.5,0.1c1.5-1.7-0.2-3-0.9-4.4c-0.6-1.1-3.1-2-1.1-3.5c2.4-1.8,1.8,1.4,2.8,2
				c1.6,1,3.1,0.9,3.7-0.8c1.7-4.8,3.9-9,8.7-11.6c1.3-0.7,1.6-3.5,2.1-5.4c0.9-3.4,2.8-4.4,5.8-2.6c3.8,2.3,4.5,0.4,4.9-3
				c0.3-3.3,0.9-6.5,5.4-7.1c2.3-0.3,1.8-3.2,2.6-4.9c1.4-2.7,1.8-7.6,7-3.6c1.9,1.4,7.2-2.9,6.9-5.4c-0.2-1.6-1.1-2-2.4-1.5
				c-1.4,0.5-3,0.6-3.1-1.2c-0.1-1.9,1.5-3.3,3.2-3c6.3,1.4,7.9-3.1,9.7-7.3c0.9-2,2-3.7,3.4-5.4c3.7-4.6,8-8.7,10.8-13.9
				c2.3-4.2,6.5-3,9.7-3.1c2.8-0.1,4.1-1.1,5.6-2.9c3.5-4.1,4.4-10.4,10.3-12.5c0.7-0.3,1.4-1.1,1.1-2c-0.8-3.1-0.5-4.4,3.2-2.8
				c1.5,0.6,3.3-1.2,3.4-3.4c10.8,10,20.1,21.2,29.3,32.6c13.4,16.7,24,35,33,54.3c5.6,12,10.6,24.2,13.7,37c0.5,1,0.2,2.4-0.4,2.8
				c-4.4,2.4-6.1,7.7-10.6,10c-2.8,1.4-4.7,3.3-5.3,6.7c-0.7,3.6-7.9,7.1-11.7,6.1c-2.4-0.6-5.2-1.2-4.2,2.9
				c1.3,5.1-1.5,7.1-5.6,8.2c-3.1,0.8-4.9,1.8-4.2,5.8c0.6,3.2-1.8,5.6-5.1,6.4c-1.9,0.5-3.3,1.1-3.7,3.4c-1.4,8.1-2.7,8.9-10.3,6.6
				c-1,1.2,0.1,2.2,0.3,3.2c1.1,4.3-0.1,5.7-4.7,5.5c-1-0.1-2.5-0.6-2.8,0.3c-1.4,4.2-5.5,6.4-7.5,10.1c-1.3,2.3-2.9,3.7-4.6,5.5
				c-4.9,5.1-10.3,10.4-13.6,16.4c-2.3,4.1-4.1,7-8.3,8.4c-1.9,0.7-3.4,2.1-4.9,3.4c-1,0.9-1.8,2.3-3.2,2.2c-5.8-0.6-6.3,3.9-7,7.5
				c-0.5,2.4-0.9,3.8-3.5,3.4c-3-0.4-2.7,3.4-4.7,3.8c-3.8,0.7-1.9,2.8-1.6,4.7c0.4,2.1-0.6,3.9-1.7,5.6c-1.8,2.6-3.7,2.5-5.4-0.1
				c-0.7-1.1-0.7-2.6-1.9-3.5c2.7,5.9-1.2,12.8-7.8,11.9c0.5,3.1,1.4,6.5-1.8,8.6c-2.1,1.4-2.6-1.2-3.7-2.3
				c-0.7,1.1-0.4,2.6-1.6,3.4c-11.5-2.7-21.9,0.6-31.1,7c-12.8,9-19.1,21.7-18.9,37.5c0.1,4.6,0.8,9.2,3,13.3c1.6,3.1,1,4.8-1.8,6.8
				c-15,10.6-31.5,17.6-49.5,21.3c-2.5,0.5-3.6,0.2-3.6-2.7c0.1-27.8,0.1-55.6,0-83.4c0-2.2,1.1-3.1,2.9-4
				c17.4-9.6,25.1-24.9,23-44.2C566.8,291,550.4,274.4,530,272.8z"/>
			<path class="st6" d="M645,358.8c0-0.2,0-0.3,0-0.5c0.3-1.9-1-4.8,1.2-5.4c2.8-0.7,0.9,3.4,3.2,4.4c1.8-2.1,3.3-4.2,1.1-7.1
				c-0.5-0.7-1.6-1.5-0.5-2.5c0.7-0.7,1.6-0.8,2.3-0.4c4.9,2.6,5.5-1.9,7-4.4c1.7-2.9-0.3-4.6-3.8-6c3.2-1.9,5.1-3,6.3,0.8
				c0.6,1.8,0.8,5.1,3.1,3.7c1.8-1,4.4-4.3,2.3-7.2c-2.4-3.3-3.8-5.4,2.2-4.4c1.2,0.2,1.3-1.2,1.6-2.1c0.6-2.4,1.7-4.1,4.5-2
				c0.7,0.5,2.1,0.3,2-0.5c-0.5-2.1-2.1-4,1-5.8c2-1.1,1.1-4,2.3-6.2c2.9,2.5,5.3,2,7.7-1c1.4-1.8,3.6-3,6.1-3.7
				c3.1-0.9,6.2-2.2,5.6-7.1c-0.4-3.1,3.4-4.6,5.8-6.2c2.1-1.4,3.4-2.8,4.2-5.2c1-2.9,1.9-6.2,6.1-6.3c0.4,0,1.2-0.5,1.2-0.8
				c0.2-5.8,7.3-7,8.2-12.4c0.5-3,1.9-4.1,4.8-2.3c1.2,0.7,2.5,1.1,3.6-0.1c1.4-1.4,0.5-2.7-0.1-4.1c-0.6-1.5-2.9-2.7-0.8-4.7
				c2.2-2.1,2.9,0,4.3,1.1c2.3,1.7,6.6-0.6,6.3-3.4c-0.5-4.8,0.8-7.3,6-7.9c2.5-0.3,3.8-2.7,2.6-5.5c-1.3-3.1-0.1-4.7,3-5.4
				c1.6-0.4,3.1-1.2,4.7-1.6c3.5-0.8,3.2-3.3,2.5-5.8c-0.4-1.4-2.7-3.1-0.2-4.1c1.9-0.8,4.2-2.5,6.4-0.2c1.4,1.5,2,0.3,3.5-0.3
				c4.6-1.9,6.1-5.3,7.7-9.4c0.5-1.4,2.7-2.4,4.3-3.2c2.1-1,4.4-1.4,4-4.7c-0.2-1.5,1.7-2.1,2.9-2.4c2.6-0.6,3.9-2.3,4.8-4.6
				c3.9,10.4,6,21.3,7.9,32.1c3.4,19.4,4.8,39,4.1,58.7c-0.6,17.3-2.8,34.3-6.4,51.2c-5.5,25.9-14.9,50.4-27.5,73.8
				c-8.9,16.5-19.4,31.8-31.5,46.2c-6.5,7.7-13,15.4-20.4,22.3c-18.3,17.1-38.2,32-60.1,44.3c-23.2,13-47.8,21.9-73.5,28
				c-12.2,2.9-24.7,5.1-37.4,5.4c-2.6,0.1-5.6,2.7-7.5,0.5c-1.9-2.2-0.7-5.8-0.7-8.7c-0.1-25,0-50-0.1-75c0-3.8,0.8-5.4,4.8-6.3
				c15.3-3.4,30.3-8.1,44.3-15.6c8.5-4.6,16.9-9.4,24.6-15.3c2.7-2.1,4.9-2,8-1c17.2,5.5,32.7,2,45.2-11.1
				c21.2-22.1,13.4-56.5-11.7-68.7C653.8,360.9,649.7,359.2,645,358.8z"/>
			<path class="st7" d="M328.9,485.1c-2.3-6.6,5.2-6.4,7.2-10c0.4-0.7,2.3-0.7,2.5-1.3c2.2-6.3,8.4-8.4,12.7-12.5
				c1.6-1.5,2.7-3.6,4.9-4.2c2.8-0.8,3.9-2.8,3.8-5.2c-0.1-3.3,1.7-5,4.3-5.8c2.1-0.7,3.6-2.2,3.4-3.8c-0.8-6.4,4.1-6.5,8-7.3
				c3.2-0.6,4.8-1.9,4.4-5.2c6.9,7,14.7,12.4,24.7,14.3c8.2,1.5,15.9,1,23.7-2c1.4-0.5,2.5-1.4,4.4-0.1c16.4,11.8,34.1,21.3,53.2,28
				c1.5,2.3,0.2,3.7-1.8,4c-3.8,0.5-4.6,2.9-5.4,6.1c-1.2,5-4.5,7.1-9.8,6.6c-0.5,10.4-1.9,12.1-7.6,8.8c-2.5,4.6-6.7,8.2-8.5,13.3
				c-0.4,1.2-1.5,1.9-2.7,1.9c-1.9,0.1-2.6,0.9-2.6,2.8c0,1.3-1,2-2,2.6c-2.7,1.5-5.6,2.7-7.5,5.6c-1,1.5-2.7,0.8-4.4-0.3
				c2,2.6,4.2,5.3,1.1,7.7c-2.6,1.9-4.2,8.3-9.3,2.5c-1,2.6,1.2,3.2,1.8,4.6c0.5,1.1,0.6,2.3-0.1,3.3c-0.7,1-1.8,1.1-2.6,0.5
				c-4.1-3-6.2-1.4-7.5,2.8c-0.1,0.4-0.8,0.4-1.3,0.1C383,529.5,354,510.3,328.9,485.1z"/>
			<path class="st8" d="M868.8,737c0,12.4,0,24.9,0,38.6c5.5-5.9,10.5-10.4,14.5-15.7c3.6-4.8,8-8.7,11.8-13.3
				c5.1-6.2,11-11.9,16-18.2c0.9-1.2,2.1-1.4,3.5-1.4c11.8,0,23.6,0,36.2,0c-2.9,3.5-5.3,6.8-8.1,9.6c-12.9,13.4-25.9,26.8-39,40
				c-2.7,2.7-2.2,4.2,0,6.8c10,11.8,19.8,23.8,29.8,35.6c6.6,7.8,13.3,15.5,20.8,24.1c-5.8,0-10.9,0-15.9,0c-6.7,0-13.3-0.2-20,0.1
				c-3.5,0.1-5.4-1.3-7.4-3.9c-13.7-17.9-27.5-35.7-42-54.5c0,18.5-0.2,35.7,0.1,53c0.1,4.4-1,5.7-5.5,5.5c-7-0.4-14-0.2-21-0.1
				c-2.8,0.1-3.7-0.7-3.7-3.6c0.2-25.8,0.2-51.7,0.2-77.5c2-3.4,6.6-4.7,6.8-9.8c0.1-2.1,3.3-1.9,5.5-1.2c4,1.4,6.4-0.6,8.5-4.2
				c-2.4,0.3-2.9,2.2-4.2,3.1c-1.5,1-3.1,1.6-4.6,0.3c-1.5-1.3-0.4-2.7,0.4-3.9c2-3.1,3.9-6.3,8.5-5.3c1.9,0.4,3-0.9,4.2-2.1
				C865.6,737.6,866.6,735.7,868.8,737z"/>
			<path class="st9" d="M496,728.2c11.9-6.8,33.2-5.1,44,3.3c11.6,9,16.7,21.3,16.9,35.5c0.3,23.8,0,47.6,0.2,71.4
				c0,3.6-0.8,4.9-4.6,4.8c-7-0.3-14-0.4-21,0c-4,0.2-4.6-1.3-4.6-4.8c0.2-22,0.2-44,0-65.9c-0.1-7.2-2.7-13.6-8.4-18.5
				c-8.9-7.5-26.7-4.3-33.3,7.7c-3.3,5.9-5.3,12.2-5.3,19.2c0.2,19.3,0,38.6,0.1,57.9c0,3.6-1,4.5-4.5,4.4c-7.3-0.3-14.7-0.2-22,0
				c-2.8,0.1-3.7-0.7-3.7-3.6c0.2-19.5,0.2-39,0.2-58.4c2.2-5,5.5-9.2,8.6-13.7c3.4-4.9,9-5.9,13.3-9.1c1.3-1,2.7-1.2,1.7-3.2
				c-0.7-1.4-0.2-2.9,0.9-3.6c5.5-4,8.8-9.8,13.1-14.8c2.8-3.4,6.5-4.8,11.3-3.6C497.9,730.9,495.4,730.5,496,728.2z"/>
			<path class="st10" d="M415.9,543.1c0.4-0.7,0.9-1.4,1-2.1c0.7-3.9,3.5-5.2,6.8-3.1c0.9,0.6,1.6,2.9,2.9,1
				c1.1-1.5-0.3-2.7-1.8-3.4c-1.9-0.9-2.4-2.4-1.3-4.1c1.1-1.6,3.1-2.2,4.1-0.3c1.7,3.2,2.6,3.6,3.4-0.3c0.2-0.9,0.7-1.4,1.6-1.7
				c4.9-1.5,2.6-3.8,0.7-6.1c-0.8-1-3.4-1.5-1.7-3.3c1.5-1.5,2.5,0.3,3.5,1.5c0.8,0.9,2.3,1.1,2.4,0.1c0.4-4.3,4.7-3.7,6.8-5.7
				c0.6-0.5,2.1-1,2.1-1.1c-2-5.5,1.8-4.7,5-5c1-0.1,0.8-2,1.1-3.1c1.6-4.6,6.9-6.9,7.4-12.4c0.1-1.5,2.4-0.8,3.3,0.8
				c0.5,0.8,0.8,2.1,2,1.9c1.3-0.3,1.6-1.6,1.8-2.7c0.3-1.5,0.7-2.9,0.7-4.4c0-3.9-0.1-3.2,3.6-3.5c2.2-0.2,5.4-1.5,6-4.8
				c0.8-4.2,0.8-8.8,7.2-8.1c1.3,0.1,1.3-1.6,1.3-2.8c6.3,1.6,12.5,3.6,18.9,4.6c3.7,0.6,4.2,2.2,4.1,5.2c-0.1,17,0,33.9,0,50.9
				c0,10.1-0.1,20.3,0.1,30.4c0.1,3.3-1.2,4-4.1,3.7c-26.6-2.7-52.6-7.8-77.7-17c-1.2-0.4-2.2-1.2-3.3-1.8c-0.7-1.2-1.8-1.4-3-1
				C419.2,544.6,417.4,544.3,415.9,543.1z"/>
			<path class="st7" d="M442,369.1c2.1-3.4,3.3-7.7,8.2-8.4c0.3,0,0.8-0.3,0.8-0.5c-0.2-6.1,6.6-6.1,8.8-10.3
				c1.1-2.2-0.6-3.8,0.2-5.8c3.2-0.5,3.4,2.8,5.1,4.4c1.7-1.6,0.7-3.6,1-5.3c0.5-2.7,1.1-5.1,4.6-5.4c4.1-0.4,6.7-3.7,7.9-6.8
				c1-2.7,2.6-3.8,4.6-5.2c3.4,7.8,6.1,15.9,13,21.6c2.3,1.9,4.4,4.5,7,5.3c5.7,1.8,6.1,5.6,6,10.7c-0.2,25.8-0.2,51.7,0,77.5
				c0,3.4-1,4.6-4.2,3.9c-18.3-4.3-35.6-10.8-50.6-22.8c-1.1-0.9-2.2-1-1.4-2.8C460.8,400.1,456.6,383.4,442,369.1z"/>
			<path class="st11" d="M750.8,805c-1.9,2.8-4.4,6.2-6.6,7.4c-4.3,2.5-6.6,5-7.2,9.7c-0.1,0.8-2.3,1.9-2.9,1
				c-4.1-6-4.1,0.8-5.9,1.8c-11.5-14.3-14.7-30.6-12.4-48.6c1.4-11.2,5.5-21,12.3-30c8.9-11.8,21.1-18.3,35-21.2
				c15.3-3.2,30.5-1.6,44.6,6c4.3,2.3,8.5,4.9,11.9,8.7c1.5,1.7,2.3,2.6-0.3,4.6c-5.1,4-9.6,8.6-14.3,13.1c-2.3,2.2-4.1,2.7-6.9,0.1
				c-16.8-15.5-40.4-9.6-48.9,11.7C744.1,781.5,745.4,793.4,750.8,805z"/>
			<path class="st12" d="M496,728.2c0.9,1.4,2,2.7,3.8,2.9c1,0.1,2.1,0.4,1.8,1.7c-0.2,1.3-1.5,1.4-2.4,1.2
				c-6.1-1.3-9.9,2.1-13.6,6.1c-0.8,0.9-1.7,1.4-1.3,2.9c0.8,2.8-1.5,4.4-3.3,4.7c-3.2,0.5-4,3.3-6,4.8c-0.7,0.5-1.3,1.5-0.6,2.2
				c4.3,4,0.4,3.2-2.1,4.7c-5.7,3.3-12,6.1-15.5,12.4c-1.4,2.6-4.1,4.4-4,7.9c0,1.3-1.7,1.3-2.8,1.3c-0.1-39-0.1-77.9-0.2-116.9
				c0-2.9,1.3-3.2,3.6-3.2c7.5,0.1,15,0.2,22.5,0c3.5-0.1,4,1.2,4,4.3c-0.1,24.1-0.1,48.3-0.1,72.4c0,0.8,0,1.7,0,4.2
				C484.6,735.1,489.6,730.6,496,728.2z"/>
			<path class="st7" d="M114,748.2c9.1-14.7,21.6-21.2,37.7-21.3c2.6,0,5,0.6,7.3,1.2c3.9,1.1,2.1,4.8,1.7,7c-1.6,9.4-1.8,9.1-4.5,9
				c-5.5-0.2-10.9-0.8-16.4,0.3c-11.5,2.4-17.9,10.4-21.9,20.7c-2.2,5.7-3.1,11.7-3.1,17.8c0.1,18.5-0.1,37,0.1,55.5
				c0,3.4-0.8,4.5-4.4,4.5C98,843,98,843.2,98,830.5c0-25,0.1-50-0.1-75c-0.1-7.3-1.1-14.5-1-21.8c0.1-2.7,0.6-4,3.6-3.7
				c2.1,0.2,4.3,0,6.5,0c6.4,0,6.7,0.3,7,7C114.1,740.4,114,743.8,114,748.2z"/>
			<path class="st4" d="M868.8,737c-1.9,0.1-3,1.4-3.8,2.9c-0.9,1.6-2.4,3.1-3.9,2.4c-5.2-2.1-6.4,2.4-8.8,4.9
				c-0.7,0.7-1.6,1.5-0.4,2.4c0.8,0.6,2.1,0.5,2.8-0.2c1.3-1.3,2.3-2.8,3.5-4.1c0.8-0.9,1.8-1.6,3-0.4c1,1,0.8,2,0.1,3.2
				c-2.2,3.8-6.2,5.3-10.5,3.8c-2.9-1-4.5-1-4.5,3.1c0,4-4,5.3-7.2,6.9c-0.1-32.6-0.1-65.2-0.2-97.8c0-2.8,1.2-3.3,3.6-3.2
				c7.6,0.1,15.3,0.1,23,0c2.4,0,3.6,0.4,3.6,3.2C868.9,688.4,868.9,712.7,868.8,737z"/>
			<path class="st13" d="M431,401.7c0.7,8.7-5.7,17.3-17.3,18.2c-9.8,0.8-18.5-8.1-18.8-17.9c-0.3-10,9.5-18.8,19-18.3
				C422.3,384.1,432.3,391.8,431,401.7z"/>
			<path class="st13" d="M526.2,334c-10.5,0-18.2-7.2-18.2-17.1c0-10.9,7.4-18.9,17.5-18.9c10.3,0,18.4,7.8,18.5,17.7
				C544.1,325.9,536.2,334,526.2,334z"/>
			<path class="st10" d="M620,401.5c1-8.9,6.7-17.9,19.6-17.7c8.8,0.1,17,7.8,17.2,18c0.1,9.7-9.3,18.9-18.4,18.1
				C627.2,418.8,621.5,412.5,620,401.5z"/>
			<path class="st3" d="M1002,795.8c0-1.3-0.2-2.6,1.4-3.2c0.2-0.1,1,0.4,1,0.7c0.2,1.2-0.5,2.1-1.5,2.7
				C1002.6,796,1002.3,796,1002,795.8z"/>
			<path class="st7" d="M421,545.1c0.4-0.9,0.9-1.9,2-1.7c1.5,0.3,0.9,1.7,1,2.7C423,545.8,421.6,546.5,421,545.1z"/>
			<path class="st3" d="M990.9,793.1c0.2-0.9-0.3-2.1,0.9-2.6c0.2-0.1,0.7,0.2,0.7,0.4C992.8,792.2,991.8,792.6,990.9,793.1
				L990.9,793.1z"/>
			<path class="st5" d="M569.3,227.6c0.2-1.9,0.5-3.3,2.4-3.4c0.3,0,0.9,0.6,0.9,0.8C572.3,226.6,571.4,227.5,569.3,227.6z"/>
			<path class="st5" d="M612.5,180.8c0,0.9-0.7,1-1.3,1.1c-0.4,0-1.2-0.1-1.3-0.4c-0.3-0.7,0.4-1.2,1-1.3
				C611.5,180,612.2,180.1,612.5,180.8z"/>
			<path class="st5" d="M696.3,95.9c-0.4,0.2-0.8,0.6-1.2,0.6c-0.9,0-1-0.7-0.8-1.3c0.1-0.3,0.6-0.5,0.9-0.8
				C695.4,94.8,695.7,95.1,696.3,95.9z"/>
			<g>
				<g>
					<path class="st14" d="M687.8,760.7c-1.8-15.8-10.6-27.1-26-32.8c-14.6-5.4-29.4-5-44.2-1.5c-10.1,2.4-19.4,7-27.3,13.9
						c-1.2,1-3.4,2-1.2,4.3c4.2,4.6,8.2,9.4,12.3,14.2c1.4,1.6,2.2,1.9,4.2,0.3c9.8-7.9,20.7-12.5,33.7-11.2c9.7,1,18.5,5.7,21.3,16
						c1.5,5.6,0.6,6.9-5,7.1c-7.1,0.2-14.2,0-21.3,0.8c-10.2,1.1-20.1,2.9-29.6,6.5c-6.6,2.5-12.2,6.7-16.9,12.2
						c-5.7,6.8-5.8,14.7-5.7,22.8c0.1,9.2,3.8,16.7,10.6,22.5c12.7,10.9,28,11.5,43.5,9.5c9.8-1.2,17.9-6.2,25.1-13.7
						c0,2.8,0.1,5.6,0,8.4c-0.1,2.1,0.6,3,2.8,2.9c7.5-0.1,15-0.1,22.5,0c2.3,0,2.8-1.1,2.7-3C688.4,813.6,690.8,787.1,687.8,760.7z
						 M661,795c-1.3,17.9-10.4,27.9-29.7,29.1c-5-0.1-10-1.4-14.6-4.1c-7.1-4.3-7.2-15.7-0.4-20.6c5.9-4.2,12.6-6,19.6-7.2
						c7-1.2,14.2-1,21.3-1.1C660.5,790.8,661.2,792,661,795z"/>
				</g>
			</g>
			<path class="st15" d="M277.5,792.1c4.5,0,5.8-1.4,5.6-5.7c-0.2-6.3-0.7-12.5-2.2-18.6c-3-12.1-8.2-22.8-18.8-30.2
				c-12.7-9-26.6-11.8-42-9.7c-12.6,1.7-23.3,6.8-32.1,15.6c-12.1,12.1-17,27.6-17,44.3c0.1,11,2.8,21.6,8.8,31.2
				c15.5,24.7,38,29.7,62.2,26.2c15.3-2.2,27.3-10.5,36.6-22.9c-3.3-3.5-7.2-6.2-11-9.1c-1.5-1.2-2.4-1.5-3.6,0.2
				c-9.9,14.1-23.7,19.5-40.4,17.4c-9.4-1.2-17.5-5.8-24-13.1c-6.5-7.3-9.5-15.9-10.3-25.8c1.8,0,3.6,0,5.4,0
				C222.5,792,250,791.9,277.5,792.1z M190.2,773.5c4.6-19.7,22.2-33.2,42.2-31.4c16.6,1.5,26.6,10.1,31.6,27.6
				c0.3,0.9,0.5,1.9,0.8,2.8c0.9,3.7,0.5,5.8-4.3,5.6c-11.1-0.3-22.3-0.1-33.4-0.1c-11,0-21.9-0.1-32.9,0.1
				C190.3,778.1,189.4,776.9,190.2,773.5z"/>
			<path class="st6" d="M418,766.8c-4-15.9-12.6-28.1-27.9-34.7c-10.2-4.4-20.8-5.8-32.2-4.4c-16.7,2.1-29.1,10.4-38.7,23.6
				c-8.4,11.5-10.8,24.7-10.2,38.7c0.8,19.8,8.8,35.6,25.3,47c11.1,7.7,23.5,9.3,36.6,9c17.1-0.3,30.5-7.6,42-19.6
				c2.7-2.8,3.7-5.3-0.6-7.8c-2.4-1.4-4.2-3.7-6.5-5.3c-1.5-1-3-2.3-4.6,0.5c-1.8,3-4.7,5.3-7.4,7.8c-10.3,9.2-22.7,11.4-35.2,8.7
				c-17-3.7-28.1-15.6-31.6-33.8c-0.6-3-0.2-4.9,3.9-4.8c14.2,0.3,28.3,0.1,42.5,0.1c14.2,0,28.3-0.1,42.5,0.1
				c3.3,0,4.2-0.9,4.2-4.2C420.1,780.8,419.7,773.8,418,766.8z M397.4,778.1c-11-0.3-22-0.1-32.9-0.1c-11.1,0-22.3-0.1-33.4,0
				c-3.5,0-4.2-0.5-3.5-4.5c3.4-17.3,21.3-33.7,42.4-31.5c18.1,1.9,29,13.8,32.1,31.4C402.7,777.2,401.1,778.2,397.4,778.1z"/>
			<path class="st8" d="M863.1,733.5c0.5-1.8,1.1-2.6,2.5-2.9C865.7,732.2,864.8,732.9,863.1,733.5z"/>
			<path class="st8" d="M844,755.5c-0.3,0.3-0.5,0.9-0.8,1c-0.6,0.2-0.9-0.4-0.8-0.9c0.1-0.4,0.6-0.6,1-1
				C843.5,754.9,843.7,755.2,844,755.5z"/>
			<path class="st8" d="M861.5,736.4c-0.3,0.1-0.7,0.4-1.1,0.4c-0.5,0-1-0.2-0.6-0.8c0.2-0.3,0.7-0.6,1.1-0.7
				C861.4,735.3,861.8,735.7,861.5,736.4z"/>
		</g>
	</g>
</g>
</svg>
